<svg width="40" height="40" viewBox="0 0 40 40" fill="none" xmlns="http://www.w3.org/2000/svg">
<path d="M39.9236 7.41224C39.9111 7.36174 39.8943 7.3163 39.8776 7.26581C39.8735 7.25571 39.8693 7.24056 39.8651 7.23046C39.8526 7.19512 39.8401 7.16482 39.8233 7.13453C39.815 7.11433 39.8025 7.09413 39.7941 7.07394C39.7816 7.05374 39.7732 7.03354 39.7607 7.01335C39.7482 6.99315 39.7356 6.97295 39.7231 6.95781C39.6981 6.91741 39.6688 6.88207 39.6438 6.84672C39.6438 6.84672 39.6438 6.84167 39.6396 6.84167C39.4182 6.54882 39.105 6.362 38.7416 6.362H11.0477C10.9558 6.362 10.8639 6.362 10.772 6.362C10.5423 5.52383 10.3168 4.68566 10.0871 3.8475C9.84068 2.94874 9.61098 2.04493 9.35204 1.15122C9.34786 1.13607 9.34368 1.12597 9.33951 1.11083C9.1641 0.474625 8.70051 0 8.13251 0H1.25392C0.598216 0 -0.0282504 0.69679 0.00098466 1.51476C0.0302197 2.33778 0.552275 3.02952 1.25392 3.02952H7.22623C7.32646 3.38297 7.4267 3.76671 7.52693 4.13025C7.90281 5.51878 8.28287 6.90731 8.65875 8.2908C9.14739 10.0833 9.63603 11.8757 10.1247 13.6682C10.321 14.3953 10.5214 15.1224 10.7177 15.8495C11.2941 17.96 11.8663 20.0706 12.4426 22.1812C12.5679 22.6457 12.6974 23.1102 12.8227 23.5747C12.8227 23.5798 12.8185 23.5798 12.8185 23.5848C12.2338 24.837 11.6533 26.0943 11.0686 27.3465C10.9725 27.5586 10.8723 27.7605 10.7762 27.9676C10.3126 28.9622 10.8973 30.2397 11.8579 30.2397H30.9818C31.8631 30.2397 32.7485 30.27 33.6339 30.2498C33.6464 30.2498 33.6589 30.2548 33.6715 30.2548C34.3272 30.2548 34.9536 29.553 34.9244 28.735C34.8951 27.912 34.3731 27.2152 33.6715 27.2152H14.5475C14.3679 27.2152 14.1884 27.2152 14.0088 27.2152C14.3136 26.5639 14.6144 25.9125 14.9192 25.2612C14.9192 25.2561 14.9234 25.2511 14.9234 25.2511H14.9192H31.2742C32.0635 25.2511 32.8529 25.3016 33.6422 25.2511C33.6547 25.2511 33.6631 25.2561 33.6756 25.2561C34.2729 25.2561 34.6821 24.7765 34.8826 24.1453C35.4548 22.3629 36.0228 20.5755 36.595 18.7931C37.5054 15.9504 38.4159 13.1027 39.3264 10.26C39.0215 11.2092 38.7208 12.1585 38.4159 13.1077C37.8103 15.0062 37.2047 16.8997 36.595 18.7982C36.1188 20.2877 35.6427 21.7772 35.1666 23.2667C35.6427 21.7772 36.1272 20.2877 36.6033 18.7931C37.5138 15.9504 38.4201 13.1027 39.3389 10.26C39.5059 9.69952 39.8735 8.57355 39.8735 8.57355C39.8735 8.57355 39.9278 8.38673 39.957 8.29585C39.9653 8.2706 39.9695 8.24535 39.9779 8.22011C40.0238 7.9828 39.9946 7.67479 39.9236 7.41224ZM29.9001 12.931L29.1609 13.8247C28.0875 15.1224 27.01 16.4251 25.9367 17.7227C25.2601 18.5356 24.5877 19.3536 23.9111 20.1716C23.5937 20.5604 23.0508 20.5553 22.7292 20.1716C22.6081 20.0252 22.4911 19.8838 22.3742 19.7424C21.5514 18.7477 20.7245 17.748 19.9017 16.7533C19.5718 16.3544 19.5968 15.7283 19.9017 15.3243C20.2066 14.9204 20.7746 14.9507 21.0837 15.3243C21.2006 15.4657 21.3217 15.6121 21.4387 15.7535C22.0651 16.5109 22.6958 17.2632 23.3222 18.0257C23.3723 17.9651 23.4183 17.9095 23.4684 17.8489C24.5417 16.5513 25.6193 15.2486 26.6926 13.951L28.7182 11.5021C29.0481 11.1032 29.566 11.1335 29.9001 11.5021C30.2342 11.8757 30.2092 12.5574 29.9001 12.931ZM32.2849 38.6012C31.4329 39.8483 29.9294 40.3331 28.6806 39.7625C27.411 39.1818 26.559 37.7378 26.5339 36.0968C26.5339 36.0968 26.5256 36.0968 26.5256 36.0917C26.5256 36.0816 26.5172 36.0665 26.5172 36.0564V36.0513C26.5172 36.0412 26.5256 36.0261 26.5256 36.016C26.5548 34.1983 27.6365 32.5472 29.1358 32.1937C30.4848 31.8756 31.8714 32.5977 32.5898 34.0165C33.3081 35.4555 33.1619 37.3136 32.2849 38.6012ZM17.8845 38.6012C17.0325 39.8483 15.529 40.3331 14.2802 39.7625C13.0106 39.1818 12.167 37.7378 12.1419 36.0968C12.1419 36.0816 12.1461 36.0715 12.1461 36.0564V36.0513C12.1461 36.0412 12.1377 36.0261 12.1419 36.016C12.1711 34.1983 13.2445 32.5472 14.7438 32.1937C16.0928 31.8756 17.4752 32.5977 18.1936 34.0165C18.9161 35.4555 18.7657 37.3136 17.8845 38.6012Z" fill="black"/>
</svg>
